<svg version="1.1" xmlns="http://www.w3.org/2000/svg" xmlns:xlink="http://www.w3.org/1999/xlink" width="3840.000000pt" height="2160.000000pt" viewBox="0,0,256,144"><g fill="none" fill-rule="nonzero" stroke="none" stroke-width="none" stroke-linecap="butt" stroke-linejoin="none" stroke-miterlimit="10" stroke-dasharray="" stroke-dashoffset="0" font-family="none" font-weight="none" font-size="none" text-anchor="none" style="mix-blend-mode: normal"><path transform="translate(-0.0064,-0.00081) scale(0.00667,0.00667)" d="M13095,20254c-679,-56 -1248,-251 -1785,-615c-642,-434 -1129,-1075 -1382,-1819c-78,-229 -134,-484 -170,-770c-19,-155 -19,-12345 0,-12500c78,-629 268,-1145 603,-1640c434,-642 1075,-1129 1819,-1382c229,-78 484,-134 770,-170c155,-19 12345,-19 12500,0c629,78 1145,268 1640,603c642,434 1130,1078 1382,1819c79,232 135,488 170,770c19,155 19,12345 0,12500c-58,470 -165,833 -364,1230c-181,361 -394,656 -684,942c-285,281 -561,480 -914,656c-385,193 -698,288 -1182,360c-104,15 -580,16 -6238,17c-3369,1 -6143,0 -6165,-1z" id="strokeMainSVG" fill="#dddddd" stroke="#dddddd" stroke-width="270" stroke-linejoin="round"></path><g transform="translate(-0.0064,-0.0036)" fill="#0d7678" stroke="none" stroke-width="1" stroke-linejoin="miter"><g><g transform="translate(0,-0.00279) scale(0.06667,0.06667)"><g transform="translate(0,2160) scale(0.1,-0.1)"><path d="M13095,20254c-679,-56 -1248,-251 -1785,-615c-642,-434 -1129,-1075 -1382,-1819c-78,-229 -134,-484 -170,-770c-19,-155 -19,-12345 0,-12500c78,-629 268,-1145 603,-1640c434,-642 1075,-1129 1819,-1382c229,-78 484,-134 770,-170c155,-19 12345,-19 12500,0c629,78 1145,268 1640,603c642,434 1130,1078 1382,1819c79,232 135,488 170,770c19,155 19,12345 0,12500c-58,470 -165,833 -364,1230c-181,361 -394,656 -684,942c-285,281 -561,480 -914,656c-385,193 -698,288 -1182,360c-104,15 -580,16 -6238,17c-3369,1 -6143,0 -6165,-1zM15528,17733c540,-662 3219,-3945 3825,-4688c269,-330 495,-606 502,-613c14,-15 -116,-172 2898,3523c781,957 1431,1752 1446,1768l27,27l752,-2l752,-3l-188,-230c-103,-126 -508,-621 -898,-1100c-1302,-1596 -2932,-3593 -3472,-4253c-293,-360 -536,-660 -538,-667c-3,-7 26,-50 63,-96c89,-109 4211,-5159 5560,-6812c574,-703 1043,-1280 1043,-1282c0,-3 -907,-5 -2014,-5h-2015l-2152,2638c-2664,3264 -2502,3066 -2514,3066c-5,0 -970,-1177 -2144,-2615l-2134,-2614l-753,-3c-415,-1 -754,1 -754,5c0,5 397,494 883,1089c946,1159 2247,2753 3418,4188l727,890l-82,101c-1057,1295 -1667,2042 -1951,2390c-326,399 -828,1014 -3640,4460c-583,715 -1064,1306 -1069,1313c-6,9 398,12 2008,12h2015z"></path><path d="M13047,17268c13,-16 4331,-5308 4972,-6093c256,-313 886,-1085 1400,-1715c514,-630 1371,-1680 1905,-2334c534,-655 1282,-1570 1661,-2035l691,-846l838,-3c746,-2 838,0 832,13c-5,13 -1840,2264 -5241,6430c-1495,1830 -3894,4770 -4629,5672l-751,922h-844c-673,1 -841,-2 -834,-11z"></path></g></g></g></g></g></svg>